<?xml version="1.0" encoding="UTF-8"?>
<svg version="1.1" xmlns="http://www.w3.org/2000/svg" width="189" height="225">
<path d="M0 0 C0.68886292 0.00465271 1.37772583 0.00930542 2.08746338 0.01409912 C26.50053694 0.20775796 50.00381854 6.7144839 69.875 21.375 C70.875 24.375 70.875 24.375 69.36328125 27.88671875 C68.64807351 29.28383777 67.92233774 30.6756052 67.1875 32.0625 C66.83494141 32.74505859 66.48238281 33.42761719 66.11914062 34.13085938 C65.40670755 35.51014024 64.69071778 36.88758976 63.97119141 38.26318359 C62.2319914 41.61375822 60.55564781 44.99473544 58.875 48.375 C55.17074919 47.02559435 52.1348057 45.33133191 48.875 43.125 C29.72646972 30.7876919 8.32455284 26.51482069 -14.08081055 30.89453125 C-30.50434056 34.48203182 -44.17281197 42.62234766 -56.125 54.375 C-56.82496094 55.06207031 -57.52492187 55.74914063 -58.24609375 56.45703125 C-74.38823982 73.41729778 -79.83182718 95.57000287 -79.4296875 118.3515625 C-78.74500346 136.4872017 -71.25109262 153.94264131 -59.125 167.375 C-58.57328125 168.06722656 -58.0215625 168.75945312 -57.453125 169.47265625 C-46.39786181 183.1338029 -27.42433005 192.7774873 -10.125 195.375 C10.11931071 196.64839279 26.51182214 194.81935495 44.44921875 185.1796875 C47.23675446 183.71122513 49.94669913 182.51154228 52.875 181.375 C52.82263184 180.29081787 52.77026367 179.20663574 52.71630859 178.08959961 C52.53450448 174.04438728 52.42023918 169.99952977 52.32568359 165.95141602 C52.27556955 164.20405259 52.20745102 162.45710496 52.12060547 160.71118164 C51.41982078 146.25440579 51.41982078 146.25440579 54.86645508 141.80297852 C57.4561967 139.97298695 59.98237721 138.66383112 62.875 137.375 C64.27218649 136.51169142 65.65775108 135.6291041 67.02734375 134.72265625 C68.2868013 133.95720452 69.548476 133.19538718 70.8125 132.4375 C71.78026367 131.84098633 71.78026367 131.84098633 72.76757812 131.23242188 C77.51355422 128.375 77.51355422 128.375 80.875 128.375 C81.08414266 136.84187911 81.24374436 145.30766801 81.34130955 153.77649689 C81.38815351 157.70967756 81.45160953 161.64108319 81.55395508 165.57324219 C81.65222788 169.37299333 81.70565376 173.17104519 81.72889519 176.9719696 C81.74544142 178.4169947 81.7777567 179.86193347 81.82657051 181.30622864 C82.19205937 192.57527909 82.19205937 192.57527909 78.95980835 196.99205017 C76.6923625 199.04403348 74.44859596 200.7297429 71.875 202.375 C71.12525406 202.89981964 70.37550812 203.42463928 69.6030426 203.96536255 C67.57081133 205.37569936 65.49656203 206.66584944 63.375 207.9375 C62.60091797 208.40293213 61.82683594 208.86836426 61.02929688 209.34790039 C35.5746358 224.2748569 5.53999335 229.38338549 -23.32421875 222.41015625 C-54.1344232 214.30127178 -78.93740413 194.72787595 -95.07275391 167.25927734 C-101.07720495 156.50699123 -104.51104559 145.34859762 -107.125 133.375 C-107.3000708 132.7857373 -107.4751416 132.19647461 -107.65551758 131.58935547 C-111.02835357 115.68107547 -109.29310271 94.60976989 -104.125 79.375 C-103.90537598 78.72337891 -103.68575195 78.07175781 -103.45947266 77.40039062 C-93.04682867 47.54049435 -72.07840249 24.29242015 -43.9296875 10.125 C-37.87528937 7.23689269 -31.54714111 5.27810569 -25.125 3.375 C-24.06490723 2.98441406 -24.06490723 2.98441406 -22.98339844 2.5859375 C-15.38286873 -0.06592156 -7.97933103 -0.09543338 0 0 Z " fill="#F29834" transform="translate(108.125,-0.375)"/>
<path d="M0 0 C0.98363525 0.57596924 1.96727051 1.15193848 2.98071289 1.74536133 C4.65665527 2.71530029 4.65665527 2.71530029 6.36645508 3.70483398 C7.5622253 4.41213005 8.75785998 5.11965533 9.95336914 5.82739258 C11.20439946 6.55677088 12.4560365 7.28510943 13.70825195 8.01245117 C16.88360213 9.86002195 20.0513531 11.72021762 23.21746826 13.58355713 C25.92246399 15.17240359 28.63512103 16.74797592 31.34790039 18.32348633 C35.26865084 20.60173428 39.18523563 22.88684897 43.09790039 25.17895508 C47.23470917 27.60161657 51.37871694 30.01138459 55.52758789 32.41333008 C56.60298828 33.0370752 57.67838867 33.66082031 58.78637695 34.3034668 C60.8274148 35.48699183 62.86964387 36.66846611 64.91333008 37.84741211 C83.07296683 48.39384933 83.07296683 48.39384933 86.01586914 53.63989258 C86.55630758 57.42296168 86.60688905 59.63278107 84.65649414 62.95629883 C80.73729705 66.93926983 76.11514809 69.35567808 71.26586914 72.07739258 C69.11195733 73.30739568 66.95831993 74.53787942 64.80493164 75.76879883 C63.13672363 76.71650146 63.13672363 76.71650146 61.43481445 77.68334961 C57.99523683 79.65169973 54.57712239 81.65288318 51.16430664 83.66723633 C50.07085937 84.31184814 48.97741211 84.95645996 47.85083008 85.62060547 C45.73558434 86.86887073 43.62161856 88.11930785 41.5090332 89.37207031 C40.07769043 90.21233765 40.07769043 90.21233765 38.61743164 91.06958008 C37.77519043 91.56699707 36.93294922 92.06441406 36.06518555 92.5769043 C34.01586914 93.63989258 34.01586914 93.63989258 32.01586914 93.63989258 C32.01586914 94.29989258 32.01586914 94.95989258 32.01586914 95.63989258 C31.40485352 95.92219727 30.79383789 96.20450195 30.16430664 96.49536133 C24.81481915 99.06462222 19.69628429 101.79691616 14.63696289 104.89770508 C13.20441162 105.7713269 13.20441162 105.7713269 11.74291992 106.66259766 C9.82776186 107.83867604 7.92082846 109.02827413 6.02319336 110.23242188 C0.66324605 113.51559274 -4.49537745 116.41446805 -10.98413086 115.63989258 C-13.79078473 113.47643022 -15.40816486 111.79182457 -16.98413086 108.63989258 C-17.08415168 107.24492331 -17.12349923 105.84535183 -17.13130188 104.44682312 C-17.13845718 103.56781342 -17.14561249 102.68880371 -17.15298462 101.78315735 C-17.15567352 100.81637558 -17.15836243 99.84959381 -17.16113281 98.85351562 C-17.16770401 97.83713013 -17.17427521 96.82074463 -17.18104553 95.77355957 C-17.20080681 92.39957614 -17.21244699 89.02563725 -17.22241211 85.65161133 C-17.22648764 84.50126719 -17.23056316 83.35092304 -17.23476219 82.16571999 C-17.25563427 76.07809248 -17.26993149 69.9904876 -17.27929688 63.90283203 C-17.2903681 57.60767051 -17.32477335 51.31286181 -17.36446857 45.01782513 C-17.39058392 40.18371411 -17.39898417 35.34968783 -17.40257835 30.51551247 C-17.40745687 28.19464546 -17.4191066 25.87378256 -17.43761635 23.55298424 C-17.46190072 20.30652082 -17.46106211 17.0609791 -17.45410156 13.81445312 C-17.46691162 12.85374405 -17.47972168 11.89303497 -17.49291992 10.9032135 C-17.45971109 6.65888912 -17.36217404 4.27070784 -15.14225769 0.56648254 C-10.43155949 -3.63882353 -5.42063781 -2.47061877 0 0 Z " fill="#693E99" transform="translate(79.984130859375,56.360107421875)"/>
<path d="M0 0 C0.33 0 0.66 0 1 0 C0.99631283 0.54353024 0.99262566 1.08706049 0.98882675 1.64706135 C0.90052403 14.86685252 0.83456935 28.08659209 0.79275131 41.30661488 C0.77185031 47.69972003 0.74348637 54.0926128 0.69824219 60.4855957 C0.65487475 66.65177697 0.63088184 72.81775358 0.62049103 78.98407555 C0.61308333 81.34009716 0.59861841 83.6961072 0.57707977 86.05204201 C0.54816747 89.34459526 0.54403898 92.63629593 0.54589844 95.92895508 C0.53151733 96.90934753 0.51713623 97.88973999 0.50231934 98.89984131 C0.50781799 99.79586563 0.51331665 100.69188995 0.51898193 101.61506653 C0.51529476 102.3939816 0.51160759 103.17289667 0.50780869 103.97541523 C1.18677679 106.76828956 2.6953248 107.39723202 5 109 C5.33 109.99 5.66 110.98 6 112 C7.65 112.33 9.3 112.66 11 113 C11 113.33 11 113.66 11 114 C8.3125 114.3125 8.3125 114.3125 5 114 C2.42714276 111.827365 0.51003081 110.02006162 -1 107 C-1.09382343 105.59807939 -1.12629554 104.19179966 -1.12698364 102.78674316 C-1.12980347 101.90339798 -1.13262329 101.0200528 -1.13552856 100.10993958 C-1.13249222 98.65269722 -1.13249222 98.65269722 -1.12939453 97.16601562 C-1.13114685 96.14481125 -1.13289917 95.12360687 -1.13470459 94.07145691 C-1.13911951 90.68303751 -1.13618636 87.29466996 -1.1328125 83.90625 C-1.13348564 81.55977366 -1.13445575 79.21329739 -1.13571167 76.86682129 C-1.13718816 71.9439223 -1.13503565 67.02104142 -1.13037109 62.09814453 C-1.12467384 55.77592782 -1.12795311 49.45375355 -1.13394356 43.13153839 C-1.13755049 38.28468504 -1.13640997 33.43784181 -1.13381577 28.59098816 C-1.13314686 26.25929255 -1.13397364 23.92759604 -1.13629532 21.59590149 C-1.13882399 18.3419042 -1.13497817 15.08797646 -1.12939453 11.83398438 C-1.13141876 10.86248947 -1.13344299 9.89099457 -1.13552856 8.89006042 C-1.13270874 8.00671524 -1.12988892 7.12337006 -1.12698364 6.21325684 C-1.12660662 5.44339195 -1.12622959 4.67352707 -1.12584114 3.88033295 C-1 2 -1 2 0 0 Z " fill="#5C437F" transform="translate(64,58)"/>
<path d="M0 0 C0.98105913 3.07859966 0.96130602 4.93590306 0.0859375 8.02734375 C-1.25220728 13.55029375 -1.38271297 18.89800674 -1.375 24.5625 C-1.37556396 25.61155518 -1.37612793 26.66061035 -1.37670898 27.74145508 C-1.25094851 36.71580509 0.35673371 44.45450055 3 53 C3.35719149 54.66171692 3.70066812 56.32689232 4 58 C0.46352496 56.32482761 -0.7911563 55.50719183 -2.3125 51.8125 C-2.539375 50.884375 -2.76625 49.95625 -3 49 C-2.34 49 -1.68 49 -1 49 C-1 47.68 -1 46.36 -1 45 C-2.65 44.34 -4.3 43.68 -6 43 C-5.51781006 42.2589502 -5.51781006 42.2589502 -5.02587891 41.50292969 C-3.60170841 38.02825193 -3.64331568 34.65344233 -3.5859375 30.953125 C-3.56657135 30.18192322 -3.5472052 29.41072144 -3.5272522 28.6161499 C-3.46762923 26.16087795 -3.42114086 23.70555867 -3.375 21.25 C-3.33680425 19.58201118 -3.29775159 17.91404174 -3.2578125 16.24609375 C-3.16194209 12.16422057 -3.07784765 8.08225507 -3 4 C-2.34 4 -1.68 4 -1 4 C-0.67 2.68 -0.34 1.36 0 0 Z " fill="#E99B44" transform="translate(30,87)"/>
<path d="M0 0 C0.99 0 1.98 0 3 0 C0.60292686 8.17824952 -3.08858772 15.46651278 -7 23 C-11.875 21.25 -11.875 21.25 -13 19 C-12.01 19 -11.02 19 -10 19 C-10 15.7 -10 12.4 -10 9 C-8 9 -6 9 -4 9 C-3.01 7.02 -2.02 5.04 -1 3 C-0.34 3 0.32 3 1 3 C0.67 2.01 0.34 1.02 0 0 Z " fill="#EF9733" transform="translate(174,25)"/>
<path d="M0 0 C-2.625 4.875 -2.625 4.875 -6 6 C-6.33 5.34 -6.66 4.68 -7 4 C-7.99 4.33 -8.98 4.66 -10 5 C-10 5.66 -10 6.32 -10 7 C-13 6 -13 6 -14 5 C-17.60140851 5.35307927 -20.7700761 5.91885039 -24.1875 7.125 C-27.16345922 8.05085398 -28.12903705 7.87296946 -31 7 C-26.644638 5.53079122 -22.28498945 4.07584437 -17.91943359 2.63720703 C-16.27215989 2.09035071 -14.62970487 1.52901659 -12.98828125 0.96484375 C-8.27139385 -0.58818962 -4.94183055 -1.4305299 0 0 Z " fill="#E69F46" transform="translate(99,1)"/>
<path d="M0 0 C0.125 3.375 0.125 3.375 0 7 C-0.66 7.66 -1.32 8.32 -2 9 C-2 8.34 -2 7.68 -2 7 C-2.928125 7.185625 -3.85625 7.37125 -4.8125 7.5625 C-8 8 -8 8 -11 7 C-11.33 7.99 -11.66 8.98 -12 10 C-13.98 10.33 -15.96 10.66 -18 11 C-14.95124073 7.67140292 -11.78089042 5.49564707 -7.875 3.25 C-6.82054687 2.63640625 -5.76609375 2.0228125 -4.6796875 1.390625 C-2 0 -2 0 0 0 Z " fill="#EB9B3F" transform="translate(188,128)"/>
<path d="M0 0 C0 0.66 0 1.32 0 2 C-0.99 2 -1.98 2 -3 2 C-3 2.66 -3 3.32 -3 4 C-3.99 4 -4.98 4 -6 4 C-6 5.32 -6 6.64 -6 8 C-5.34 8 -4.68 8 -4 8 C-4 8.66 -4 9.32 -4 10 C-5.98 9.34 -7.96 8.68 -10 8 C-10 7.34 -10 6.68 -10 6 C-10.72703125 6.144375 -11.4540625 6.28875 -12.203125 6.4375 C-19.55348796 7.79449009 -26.53387397 8.23828062 -34 8 C-34 7.67 -34 7.34 -34 7 C-32.94683594 6.91363281 -31.89367187 6.82726562 -30.80859375 6.73828125 C-21.64321298 5.8810643 -13.5253381 4.1959353 -4.87890625 1.0234375 C-2 0 -2 0 0 0 Z " fill="#E09A48" transform="translate(147,189)"/>
<path d="M0 0 C0.66 0.33 1.32 0.66 2 1 C0.6875 3.5 0.6875 3.5 -1 6 C-1.99 6 -2.98 6 -4 6 C-4.33 7.32 -4.66 8.64 -5 10 C-6.32 10.33 -7.64 10.66 -9 11 C-8.34 11.33 -7.68 11.66 -7 12 C-9.64 12 -12.28 12 -15 12 C-10.58990583 7.14889642 -5.41995647 3.651893 0 0 Z " fill="#EDA03D" transform="translate(53,16)"/>
<path d="M0 0 C0.66 0.99 1.32 1.98 2 3 C-3.59243754 8.32801969 -9.05575361 12.58533511 -16 16 C-16.33 14.02 -16.66 12.04 -17 10 C-14.03 10 -11.06 10 -8 10 C-7.67 9.01 -7.34 8.02 -7 7 C-6.01 7 -5.02 7 -4 7 C-4 5.68 -4 4.36 -4 3 C-3.34 3 -2.68 3 -2 3 C-2 2.34 -2 1.68 -2 1 C-1.34 0.67 -0.68 0.34 0 0 Z " fill="#E79C44" transform="translate(187,191)"/>
<path d="M0 0 C1.03529928 3.26848421 0.94073993 4.24276708 0.0703125 7.80859375 C-1.5593727 14.49030306 -1.2125893 21.22716569 -1.125 28.0625 C-1.11494631 29.41861315 -1.1058247 30.77473355 -1.09765625 32.13085938 C-1.07424058 35.420761 -1.04144423 38.71028438 -1 42 C-3.45777197 38.24105464 -3.25710815 34.50046454 -3.1953125 30.171875 C-3.1924826 29.42286926 -3.18965271 28.67386353 -3.18673706 27.90216064 C-3.1755726 25.51794224 -3.15047531 23.13410421 -3.125 20.75 C-3.11496535 19.13021377 -3.10584035 17.51042164 -3.09765625 15.890625 C-3.07564555 11.92693754 -3.04114175 7.96353319 -3 4 C-2.34 4 -1.68 4 -1 4 C-0.67 2.68 -0.34 1.36 0 0 Z " fill="#D89752" transform="translate(30,87)"/>
<path d="M0 0 C1.65 0 3.3 0 5 0 C4.649375 0.515625 4.29875 1.03125 3.9375 1.5625 C2.62724967 4.96915087 3.2818956 7.47476024 4 11 C4.33 11.66 4.66 12.32 5 13 C5.66 12.67 6.32 12.34 7 12 C7 16.29 7 20.58 7 25 C1.19280422 19.19280422 0.35694227 7.90627133 0 0 Z " fill="#E69B48" transform="translate(1,129)"/>
<path d="M0 0 C3.3656687 2.77667668 4.87000107 4.17667343 5.5625 8.5625 C4.92776783 12.44141882 4.04569711 13.62054913 1 16 C0.875 9.25 0.875 9.25 2 7 C0.68 7 -0.64 7 -2 7 C-1.34 4.69 -0.68 2.38 0 0 Z " fill="#603F8E" transform="translate(161,105)"/>
<path d="M0 0 C0.66 0.33 1.32 0.66 2 1 C-1.66666667 4.66666667 -5.33333333 8.33333333 -9 12 C-10.1875 9.3125 -10.1875 9.3125 -11 6 C-9.8125 3.125 -9.8125 3.125 -8 1 C-7.01 1 -6.02 1 -5 1 C-5 1.66 -5 2.32 -5 3 C-2.3094472 1.77992056 -2.3094472 1.77992056 0 0 Z " fill="#EC993D" transform="translate(54,49)"/>
<path d="M0 0 C4.72904163 1.4028044 8.87351035 3.41553609 13.125 5.875 C13.73214844 6.21402344 14.33929688 6.55304687 14.96484375 6.90234375 C18.46640392 8.90868433 21.29691624 11.00105633 24 14 C23.01 14.495 23.01 14.495 22 15 C22 14.34 22 13.68 22 13 C19.525 12.505 19.525 12.505 17 12 C17 11.34 17 10.68 17 10 C16.01 10 15.02 10 14 10 C14 9.34 14 8.68 14 8 C10.37 7.01 6.74 6.02 3 5 C3 4.34 3 3.68 3 3 C2.34 3 1.68 3 1 3 C0.67 2.01 0.34 1.02 0 0 Z " fill="#E2A34F" transform="translate(155,9)"/>
<path d="M0 0 C1.32 0.33 2.64 0.66 4 1 C4.20689453 1.86818359 4.20689453 1.86818359 4.41796875 2.75390625 C6.23640685 9.77136872 8.81676384 14.81676384 14 20 C13.625 22.125 13.625 22.125 13 24 C0 4.22222222 0 4.22222222 0 0 Z " fill="#DF9D4B" transform="translate(8,155)"/>
<path d="M0 0 C0.33 0 0.66 0 1 0 C1.37791411 6.42453988 1.37791411 6.42453988 -0.375 9.09375 C-2.72097055 13.2894281 -3.33453854 17.61623359 -4.1875 22.3125 C-4.36474609 23.24384766 -4.54199219 24.17519531 -4.72460938 25.13476562 C-5.15853595 27.42167595 -5.5833558 29.70988924 -6 32 C-6.66 32 -7.32 32 -8 32 C-6.94290262 20.66354191 -3.84182478 10.65562723 0 0 Z " fill="#DF9749" transform="translate(8,68)"/>
<path d="M0 0 C5.1690067 -0.19292303 9.46021529 0.42963318 14.4375 1.8125 C15.08984619 1.99264648 15.74219238 2.17279297 16.41430664 2.35839844 C21.05518503 3.66438588 25.53894104 5.17915961 30 7 C26.44598694 8.18467102 25.16698989 7.71128064 21.625 6.6875 C20.68914062 6.42324219 19.75328125 6.15898438 18.7890625 5.88671875 C16 5 16 5 13.51171875 3.93359375 C10.67920323 2.88076139 8.19599815 2.59248179 5.1875 2.375 C4.21167969 2.30023438 3.23585938 2.22546875 2.23046875 2.1484375 C1.49441406 2.09945313 0.75835937 2.05046875 0 2 C0 1.34 0 0.68 0 0 Z " fill="#DC9E51" transform="translate(124,1)"/>
<path d="M0 0 C0.46148437 0.35191406 0.92296875 0.70382813 1.3984375 1.06640625 C6.15032527 4.66319086 10.98700174 8.10871327 15.8984375 11.484375 C18 13 18 13 20 15 C18.66666667 14.66666667 17.33333333 14.33333333 16 14 C15.360625 13.9175 14.72125 13.835 14.0625 13.75 C10.95856398 12.62129599 9.25353059 10.36620712 7 8 C4.46462944 5.9256059 1.97012155 4.37898501 -1 3 C-0.67 2.01 -0.34 1.02 0 0 Z " fill="#DD954D" transform="translate(52,172)"/>
<path d="M0 0 C0.6328125 1.83984375 0.6328125 1.83984375 1 4 C-2.40953409 8.11149699 -6.2733156 10.6366578 -11 13 C-9.46356148 9.31930113 -7.21849055 7.01224796 -4.375 4.25 C-3.55773438 3.45078125 -2.74046875 2.6515625 -1.8984375 1.828125 C-0.95871094 0.92320313 -0.95871094 0.92320313 0 0 Z " fill="#E49A47" transform="translate(37,28)"/>
<path d="M0 0 C0.99 0.33 1.98 0.66 3 1 C3 1.66 3 2.32 3 3 C4.98 3 6.96 3 9 3 C4.17353323 6.21764451 -1.19821824 7.36261136 -7 7 C-5 5 -5 5 -2.9375 4.0625 C-0.65434116 3.09596458 -0.65434116 3.09596458 0 0 Z " fill="#E19945" transform="translate(135,216)"/>
<path d="M0 0 C0 3.9832961 -1.52789135 4.90986419 -4 8 C-5.05983346 10.0842078 -6.03468311 12.18648676 -6.97265625 14.328125 C-8 16 -8 16 -11 17 C-9.56407335 12.88016856 -7.53749031 9.74182002 -4.9375 6.25 C-4.22464844 5.28578125 -3.51179688 4.3215625 -2.77734375 3.328125 C-1 1 -1 1 0 0 Z " fill="#E29D50" transform="translate(25,41)"/>
<path d="M0 0 C1.32 0 2.64 0 4 0 C2.99806563 3.79303725 2.18975773 6.71536341 0 10 C-4.875 8.25 -4.875 8.25 -6 6 C-4.02 5.67 -2.04 5.34 0 5 C0.33 4.01 0.66 3.02 1 2 C0.34 1.67 -0.32 1.34 -1 1 C-0.67 0.67 -0.34 0.34 0 0 Z " fill="#DD9D4A" transform="translate(167,38)"/>
<path d="M0 0 C0.99 0 1.98 0 3 0 C0.10933941 9.59453303 0.10933941 9.59453303 -3 13 C-3.25 6.375 -3.25 6.375 -1 3 C-0.34 3 0.32 3 1 3 C0.67 2.01 0.34 1.02 0 0 Z " fill="#E39C45" transform="translate(174,25)"/>
<path d="M0 0 C0 0.66 0 1.32 0 2 C-0.99 2 -1.98 2 -3 2 C-3 2.66 -3 3.32 -3 4 C-3.99 4 -4.98 4 -6 4 C-6.33 4.99 -6.66 5.98 -7 7 C-8.98 7.33 -10.96 7.66 -13 8 C-9.81692689 4.43495812 -5.03655764 0 0 0 Z " fill="#E3984D" transform="translate(183,131)"/>
<path d="M0 0 C0.66 0.33 1.32 0.66 2 1 C1.34 2.32 0.68 3.64 0 5 C-0.66 4.67 -1.32 4.34 -2 4 C-2.33 4.99 -2.66 5.98 -3 7 C-2.34 7.33 -1.68 7.66 -1 8 C-3.64 8 -6.28 8 -9 8 C-6.14723863 5.06799526 -3.34920216 2.35684596 0 0 Z " fill="#E69B43" transform="translate(47,20)"/>
<path d="M0 0 C0.66 0.33 1.32 0.66 2 1 C-0.31 3.31 -2.62 5.62 -5 8 C-6.74627478 5.38058783 -7.38722388 3.96175123 -8 1 C-7.01 1 -6.02 1 -5 1 C-5 1.66 -5 2.32 -5 3 C-2.3094472 1.77992056 -2.3094472 1.77992056 0 0 Z " fill="#E29847" transform="translate(54,49)"/>
<path d="M0 0 C-1.95330868 1.03041513 -3.91281528 2.0490893 -5.875 3.0625 C-6.96554688 3.63097656 -8.05609375 4.19945312 -9.1796875 4.78515625 C-10.11039062 5.18605469 -11.04109375 5.58695313 -12 6 C-12.66 5.67 -13.32 5.34 -14 5 C-13.34 4.01 -12.68 3.02 -12 2 C-10.68 2 -9.36 2 -8 2 C-8 1.34 -8 0.68 -8 0 C-4.90645403 -0.99435406 -3.09720845 -0.87840996 0 0 Z " fill="#DE9D4F" transform="translate(80,35)"/>
<path d="M0 0 C1.45792884 -0.05399736 2.91642712 -0.09279177 4.375 -0.125 C5.18710938 -0.14820313 5.99921875 -0.17140625 6.8359375 -0.1953125 C9 0 9 0 11 2 C10.67 2.99 10.34 3.98 10 5 C6.08788267 3.84414715 3.1254959 2.64465038 0 0 Z " fill="#E39B48" transform="translate(143,34)"/>
<path d="M0 0 C0.66 0.33 1.32 0.66 2 1 C1.34 2.65 0.68 4.3 0 6 C-2.64 6 -5.28 6 -8 6 C-5.38485683 3.87961365 -2.80362384 1.86908256 0 0 Z " fill="#E49949" transform="translate(159,181)"/>
<path d="M0 0 C3.3 1.65 6.6 3.3 10 5 C7 6 7 6 4 5 C3.01 5 2.02 5 1 5 C0.67 3.35 0.34 1.7 0 0 Z " fill="#5C3E83" transform="translate(93,65)"/>
<path d="M0 0 C5.75 -0.125 5.75 -0.125 8 1 C8 1.66 8 2.32 8 3 C8.66 3 9.32 3 10 3 C10 3.66 10 4.32 10 5 C6.08788267 3.84414715 3.1254959 2.64465038 0 0 Z " fill="#DF9C49" transform="translate(59,211)"/>
<path d="M0 0 C1.12377697 3.30435084 0.89554742 5.0506862 -0.4375 8.25 C-0.72496094 8.95640625 -1.01242188 9.6628125 -1.30859375 10.390625 C-1.53675781 10.92171875 -1.76492187 11.4528125 -2 12 C-2.33 12 -2.66 12 -3 12 C-3 9.36 -3 6.72 -3 4 C-2.34 4 -1.68 4 -1 4 C-0.67 2.68 -0.34 1.36 0 0 Z " fill="#E39948" transform="translate(30,87)"/>
<path d="M0 0 C2.97 0.495 2.97 0.495 6 1 C3.375 5.875 3.375 5.875 0 7 C0 4.69 0 2.38 0 0 Z " fill="#E1943E" transform="translate(93,0)"/>
<path d="M0 0 C0.33 0.66 0.66 1.32 1 2 C0.01 2.495 0.01 2.495 -1 3 C-1 4.65 -1 6.3 -1 8 C-2.98 6.35 -4.96 4.7 -7 3 C-6.401875 2.87625 -5.80375 2.7525 -5.1875 2.625 C-2.73768652 2.04524015 -2.73768652 2.04524015 0 0 Z " fill="#E59A43" transform="translate(31,180)"/>
<path d="M0 0 C3.96 1.98 3.96 1.98 8 4 C8 4.33 8 4.66 8 5 C5.69 5 3.38 5 1 5 C0.67 3.35 0.34 1.7 0 0 Z " fill="#60428C" transform="translate(147,96)"/>
<path d="M0 0 C0.66 0.33 1.32 0.66 2 1 C2 1.99 2 2.98 2 4 C2.99 4 3.98 4 5 4 C5 4.99 5 5.98 5 7 C2.37812506 5.95125002 1.20628639 5.35068687 -0.25 2.875 C-0.4975 2.25625 -0.745 1.6375 -1 1 C-0.67 0.67 -0.34 0.34 0 0 Z " fill="#E19A42" transform="translate(31,187)"/>
<path d="M0 0 C0.99 0 1.98 0 3 0 C1.77263971 4.15414253 0.672336 6.43688534 -2 10 C-1.34 6.7 -0.68 3.4 0 0 Z " fill="#DF994B" transform="translate(35,71)"/>
<path d="M0 0 C1.67542976 0.28604898 3.34385343 0.61781233 5 1 C3.3545622 2.68762851 1.68711423 4.3540349 0 6 C-0.33 6 -0.66 6 -1 6 C-1.042721 4.33388095 -1.04063832 2.66617115 -1 1 C-0.67 0.67 -0.34 0.34 0 0 Z " fill="#E49A4A" transform="translate(61,40)"/>
<path d="" fill="#000000" transform="translate(0,0)"/>
<path d="" fill="#000000" transform="translate(0,0)"/>
<path d="" fill="#000000" transform="translate(0,0)"/>
<path d="" fill="#000000" transform="translate(0,0)"/>
<path d="" fill="#000000" transform="translate(0,0)"/>
<path d="" fill="#000000" transform="translate(0,0)"/>
<path d="" fill="#000000" transform="translate(0,0)"/>
<path d="" fill="#000000" transform="translate(0,0)"/>
<path d="" fill="#000000" transform="translate(0,0)"/>
<path d="" fill="#000000" transform="translate(0,0)"/>
<path d="" fill="#000000" transform="translate(0,0)"/>
<path d="" fill="#000000" transform="translate(0,0)"/>
<path d="" fill="#000000" transform="translate(0,0)"/>
<path d="" fill="#000000" transform="translate(0,0)"/>
<path d="" fill="#000000" transform="translate(0,0)"/>
<path d="" fill="#000000" transform="translate(0,0)"/>
<path d="" fill="#000000" transform="translate(0,0)"/>
<path d="" fill="#000000" transform="translate(0,0)"/>
<path d="" fill="#000000" transform="translate(0,0)"/>
<path d="" fill="#000000" transform="translate(0,0)"/>
<path d="" fill="#000000" transform="translate(0,0)"/>
<path d="" fill="#000000" transform="translate(0,0)"/>
<path d="" fill="#000000" transform="translate(0,0)"/>
<path d="" fill="#000000" transform="translate(0,0)"/>
<path d="" fill="#000000" transform="translate(0,0)"/>
<path d="" fill="#000000" transform="translate(0,0)"/>
<path d="" fill="#000000" transform="translate(0,0)"/>
<path d="" fill="#000000" transform="translate(0,0)"/>
<path d="" fill="#000000" transform="translate(0,0)"/>
<path d="" fill="#000000" transform="translate(0,0)"/>
<path d="" fill="#000000" transform="translate(0,0)"/>
<path d="" fill="#000000" transform="translate(0,0)"/>
<path d="" fill="#000000" transform="translate(0,0)"/>
<path d="" fill="#000000" transform="translate(0,0)"/>
<path d="" fill="#000000" transform="translate(0,0)"/>
<path d="" fill="#000000" transform="translate(0,0)"/>
<path d="" fill="#000000" transform="translate(0,0)"/>
<path d="" fill="#000000" transform="translate(0,0)"/>
<path d="" fill="#000000" transform="translate(0,0)"/>
<path d="" fill="#000000" transform="translate(0,0)"/>
<path d="" fill="#000000" transform="translate(0,0)"/>
</svg>
